<svg xmlns="http://www.w3.org/2000/svg" xmlns:xlink="http://www.w3.org/1999/xlink" width="168" height="35" viewBox="0 0 168 35">
    <defs>
        <path id="a" d="M0 .014h29.206v34.208H0z"/>
    </defs>
    <g fill="none" fill-rule="evenodd">
        <path fill="#FEFEFE" d="M49.973 22.15c-1.509 1.522-3.457 2.23-5.51 2.23-5.323 0-7.712-3.753-7.733-7.7-.021-3.946 2.493-7.871 7.732-7.871 1.97 0 3.877.75 5.365 2.273l-1.572 1.544c-1.047-1.05-2.43-1.544-3.793-1.544-3.73 0-5.427 2.81-5.406 5.577.02 2.745 1.613 5.469 5.406 5.469 1.362 0 2.87-.58 3.898-1.63l1.613 1.651zM58.586 15.693l4.17-6.627h2.828v.107l-5.825 8.751v6.156h-2.347v-6.156l-5.658-8.75v-.108h2.787zM71.011 21.849h4.4c1.3 0 3.102-.43 3.102-2.08 0-1.61-1.74-2.338-3.08-2.338H71.01v4.418zm0-6.563h4.422c1.76 0 2.64-.708 2.64-1.887 0-1.051-.9-2.167-2.661-2.167h-4.4v4.054zm4.4-6.22c2.788 0 4.988 1.308 4.988 4.29 0 1.265-.65 2.402-2.033 2.98 1.761.537 2.494 2.317 2.494 3.454 0 3.282-2.557 4.29-5.448 4.29h-6.727V9.066h6.727zM95.57 24.08H84.735V9.066h10.77v2.338h-8.423v4.053h8.089v2.23h-8.089v4.033h8.486zM101.982 11.254V16.7h4.463c1.95 0 2.808-1.265 2.808-2.68 0-1.352-.859-2.767-2.787-2.767h-4.484zm10.31 12.826h-2.746l-4.463-5.191h-3.101v5.19h-2.347V9.045c2.283 0 4.547.022 6.831.022 3.394 0 5.176 2.38 5.176 4.912 0 2.145-1.09 4.246-3.982 4.675l4.38 4.998.252.429zM122.287 13.27l-1.886 4.783h3.751l-1.865-4.783zm3.269 8.343h-6.559l-.964 2.467h-4.4l6.58-15.014h4.19l6.56 15.014h-4.443l-.964-2.467zM137.333 12.455v3.603h3.058c1.09 0 1.572-.836 1.572-1.737 0-.944-.524-1.866-1.613-1.866h-3.017zm9.429 11.625h-4.568l-3.415-4.87h-1.446v4.87h-4.15V9.066h7.167c3.75 0 5.7 2.466 5.7 5.169 0 1.845-.63 3.41-3.102 4.526l3.814 5.061v.258zM162.645 9.324l-5.95 7.099a548.96 548.96 0 0 1 6.453 7.399v.258h-5.134l-4.19-4.998v4.998h-4.15V9.066h4.15V14c1.257-1.587 2.619-3.346 3.855-4.933h4.966v.258zM166.11 7.222h-.187v.624h.182c.327 0 .418-.098.418-.325 0-.221-.151-.299-.413-.299m.7 1.708h-.171c-.035 0-.06-.01-.076-.037-.045-.082-.08-.15-.136-.247-.141-.232-.217-.361-.332-.49a.14.14 0 0 0-.111-.057h-.06v.727c0 .052-.041.098-.091.098h-.116a.1.1 0 0 1-.096-.098V7.067c0-.051.045-.092.096-.092h.483c.429 0 .635.252.635.541 0 .274-.15.526-.494.537.096.051.308.355.535.768.025.047.01.109-.066.109m-.625-2.471c-.786 0-1.41.65-1.41 1.5 0 .852.624 1.502 1.41 1.502.786 0 1.411-.65 1.411-1.501 0-.851-.625-1.501-1.41-1.501m0 3.254c-.938 0-1.714-.753-1.714-1.753 0-1 .776-1.754 1.713-1.754.932 0 1.714.753 1.714 1.754 0 1-.782 1.753-1.714 1.753M.249 25.5l14.07 8.751a.117.117 0 0 0 .18-.102v-8.657a.12.12 0 0 0-.063-.106l-6.612-3.617a.115.115 0 0 0-.104-.003L.26 25.288a.121.121 0 0 0-.011.212"/>
        <g transform="translate(0 .091)">
            <mask id="b" fill="#fff">
                <use xlink:href="#a"/>
            </mask>
            <path fill="#FEFEFE" d="M21.862 20.796l.002-8.55c0-.04.02-.078.053-.1l6.988-4.639a.122.122 0 0 0-.01-.208L14.977.028a.118.118 0 0 0-.17.107V8.28l6.687 3.913a.12.12 0 0 1 .059.104l-.002 8.226c0 .092-.097.15-.175.104l-6.509-3.81a.12.12 0 0 1-.059-.104l-.001-5.874v-2.44a.119.119 0 0 0-.118-.12h-.074a.119.119 0 0 1-.118-.12V.156a.117.117 0 0 0-.175-.104L.312 8.177a.122.122 0 0 0 0 .21L7.8 12.63c.038.021.084.02.12-.004l6.397-4.211a.117.117 0 0 1 .18.1l.001 2.35.001 5.856a.12.12 0 0 1-.054.101L7.932 21.1a.117.117 0 0 1-.181-.102l.063-7.925a.12.12 0 0 0-.06-.106L.22 8.697a.117.117 0 0 0-.175.104L0 24.783c0 .088.089.146.167.11l7.371-3.481a.116.116 0 0 1 .156.059c.03.066.11.09.17.05l6.735-4.422a.115.115 0 0 1 .122-.003l6.743 3.947c.078.045.079.16.002.207l-6.601 4.036a.12.12 0 0 0-.057.103v8.713c0 .093.1.151.179.102l14.069-8.854a.12.12 0 0 0 .056-.101l.094-8.518a.117.117 0 0 0-.177-.104l-6.99 4.273a.117.117 0 0 1-.177-.104" mask="url(#b)"/>
        </g>
    </g>
</svg>
