<svg xmlns="http://www.w3.org/2000/svg" xmlns:xlink="http://www.w3.org/1999/xlink" width="207" height="170" viewBox="0 0 207 170">
    <defs>
        <path id="a" d="M.247.242h12.17V97H.247z"/>
    </defs>
    <g fill="none" fill-rule="evenodd">
        <path fill="#FFF" d="M3.04 159C1.363 159 0 157.657 0 156s1.363-3 3.04-3h39.92c1.678 0 3.04 1.343 3.04 3s-1.362 3-3.04 3H3.04zM15.533 108.653a3.01 3.01 0 0 1-1.125-4.133c.838-1.45 2.707-1.95 4.172-1.118l34.887 19.946a3.013 3.013 0 0 1 1.126 4.133c-.838 1.45-2.709 1.95-4.173 1.115l-34.887-19.943zM50.403 70.58a3.075 3.075 0 0 1 1.114-4.174 3.016 3.016 0 0 1 4.136 1.128l19.944 34.888c.832 1.462.334 3.331-1.114 4.17a3.013 3.013 0 0 1-4.136-1.127L50.403 70.58zM151.347 67.535a3.015 3.015 0 0 1 4.135-1.128 3.078 3.078 0 0 1 1.116 4.173l-19.95 34.885a3.005 3.005 0 0 1-4.13 1.128c-1.45-.84-1.948-2.71-1.114-4.172l19.943-34.886zM189.422 103.402a3.074 3.074 0 0 1 4.172 1.117c.84 1.449.333 3.3-1.125 4.134l-34.888 19.943a3.077 3.077 0 0 1-4.177-1.115 3.018 3.018 0 0 1 1.131-4.134l34.887-19.945zM203.956 153c1.681 0 3.044 1.343 3.044 2.999 0 1.658-1.363 3.001-3.044 3.001h-39.914c-1.68 0-3.042-1.343-3.042-3.001 0-1.656 1.362-2.999 3.042-2.999h39.914z"/>
        <g transform="translate(97 73)">
            <mask id="b" fill="#fff">
                <use xlink:href="#a"/>
            </mask>
            <path fill="#1A1A1A" d="M12.417 90.898C12.417 94.267 9.69 97 6.332 97 2.969 97 .247 94.267.247 90.898V6.343C.247 2.975 2.969.242 6.332.242c3.358 0 6.085 2.733 6.085 6.1v84.556z" mask="url(#b)"/>
        </g>
        <path fill="#1A1A1A" d="M127.379 31.6a11.878 11.878 0 0 0-8.416-3.48 11.81 11.81 0 0 0-6.56 1.954c-2.75 1.814-5.827 2.726-8.903 2.726-3.076 0-6.152-.912-8.903-2.726a11.83 11.83 0 0 0-3.118-1.458 11.963 11.963 0 0 0-3.442-.496c-3.285 0-6.262 1.33-8.414 3.48a11.833 11.833 0 0 0-3.485 8.4c0 3.28 1.332 6.25 3.485 8.4a11.872 11.872 0 0 0 8.414 3.48 11.827 11.827 0 0 0 6.56-1.954c2.751-1.818 5.827-2.724 8.903-2.724 3.076 0 6.153.906 8.904 2.724a11.805 11.805 0 0 0 3.119 1.456 11.96 11.96 0 0 0 3.44.498c3.286 0 6.263-1.33 8.416-3.48a11.833 11.833 0 0 0 3.484-8.4c0-3.28-1.331-6.252-3.484-8.4M118.963 19a20.985 20.985 0 0 1 14.877 6.15A20.918 20.918 0 0 1 140 40c0 5.797-2.354 11.05-6.16 14.848A20.992 20.992 0 0 1 118.963 61a21.006 21.006 0 0 1-11.593-3.486c-1.204-.794-2.54-1.192-3.87-1.192s-2.664.398-3.869 1.192a20.906 20.906 0 0 1-5.548 2.597 20.986 20.986 0 0 1-6.046.889 20.991 20.991 0 0 1-14.875-6.152A20.915 20.915 0 0 1 67 40a20.92 20.92 0 0 1 6.162-14.849A20.984 20.984 0 0 1 88.037 19a21.035 21.035 0 0 1 11.594 3.485c1.205.792 2.539 1.193 3.869 1.193s2.666-.398 3.87-1.193a21.033 21.033 0 0 1 5.545-2.598 21.055 21.055 0 0 1 6.048-.887"/>
        <path fill="#1A1A1A" d="M92.104 43.372a4.509 4.509 0 0 1-6.175-1.681c-1.243-2.181-.496-4.963 1.67-6.216 2.477-1.438 5.048-1.744 7.398-1.265 2.633.536 4.93 2.055 6.471 4.048 1.79 2.315 2.57 5.201 2.53 8.023-.035 2.95-.99 5.912-2.64 8.107-1.514 2.019-3.575 3.71-5.957 4.873A17.146 17.146 0 0 1 87.915 61c-5.774 0-11-2.357-14.786-6.17A21.074 21.074 0 0 1 67 39.94c0-2.526 2.036-4.573 4.544-4.573 2.506 0 4.54 2.047 4.54 4.573 0 3.289 1.326 6.267 3.467 8.422a11.75 11.75 0 0 0 8.364 3.49c1.282 0 2.49-.296 3.548-.81 1.076-.524 1.993-1.273 2.656-2.155.519-.69.819-1.684.835-2.712.008-.87-.191-1.709-.656-2.308-.283-.367-.67-.644-1.076-.725-.325-.066-.708-.007-1.118.23"/>
        <path fill="#1A1A1A" d="M119.405 35.475c2.166 1.253 2.912 4.035 1.67 6.216a4.51 4.51 0 0 1-6.175 1.681c-.41-.237-.793-.296-1.118-.23-.41.081-.793.358-1.076.725-.463.6-.668 1.437-.656 2.308.013 1.028.314 2.022.831 2.712.663.882 1.584 1.633 2.662 2.155a8.109 8.109 0 0 0 3.545.81c3.268 0 6.225-1.332 8.366-3.49a11.916 11.916 0 0 0 3.464-8.422c0-2.526 2.036-4.573 4.542-4.573 2.508 0 4.54 2.047 4.54 4.573a21.07 21.07 0 0 1-6.125 14.89c-3.784 3.813-9.012 6.17-14.787 6.17-2.66 0-5.22-.638-7.484-1.74-2.387-1.162-4.444-2.853-5.961-4.872-1.646-2.195-2.601-5.158-2.642-8.107-.037-2.822.746-5.708 2.537-8.023 1.539-1.993 3.838-3.512 6.466-4.048 2.353-.479 4.922-.173 7.401 1.265"/>
        <path fill="#1A1A1A" d="M108.647 58.353a7.268 7.268 0 0 0-5.146-2.13 7.274 7.274 0 0 0-7.28 7.277 7.277 7.277 0 0 0 7.28 7.276 7.277 7.277 0 0 0 5.146-12.424M103.5 47c4.554 0 8.68 1.846 11.667 4.833A16.447 16.447 0 0 1 120 63.499c0 4.554-1.847 8.683-4.832 11.665A16.451 16.451 0 0 1 103.5 80a16.449 16.449 0 0 1-11.667-4.836A16.438 16.438 0 0 1 87 63.5c0-4.555 1.847-8.682 4.834-11.666A16.446 16.446 0 0 1 103.5 47M108.647 11.356a7.258 7.258 0 0 0-5.146-2.134c-2.008 0-3.83.816-5.148 2.134a7.271 7.271 0 0 0 0 10.29 7.271 7.271 0 0 0 5.148 2.13 7.268 7.268 0 0 0 5.146-2.13 7.271 7.271 0 0 0 0-10.29M103.5 0c4.554 0 8.68 1.847 11.667 4.833A16.452 16.452 0 0 1 120 16.499c0 4.554-1.847 8.683-4.832 11.668A16.461 16.461 0 0 1 103.5 33a16.458 16.458 0 0 1-11.667-4.833A16.45 16.45 0 0 1 87 16.5c0-4.555 1.847-8.68 4.834-11.666A16.452 16.452 0 0 1 103.5 0M82.593 137c-2.537 0-4.593-2.016-4.593-4.5 0-2.485 2.056-4.5 4.593-4.5h42.814c2.537 0 4.593 2.015 4.593 4.5 0 2.484-2.056 4.5-4.593 4.5H82.593z"/>
        <path fill="#1A1A1A" d="M87 131.505a4.5 4.5 0 0 1-9 0v-10.01A4.496 4.496 0 0 1 82.498 117 4.5 4.5 0 0 1 87 121.495v10.01zM130 131.505a4.5 4.5 0 0 1-9 0v-10.01a4.5 4.5 0 0 1 4.502-4.495 4.496 4.496 0 0 1 4.498 4.495v10.01zM82.593 150c-2.537 0-4.593-2.015-4.593-4.5 0-2.484 2.056-4.5 4.593-4.5h42.814c2.537 0 4.593 2.016 4.593 4.5 0 2.485-2.056 4.5-4.593 4.5H82.593z"/>
        <path fill="#1A1A1A" d="M78 145.495a4.5 4.5 0 0 1 9 0v10.01A4.5 4.5 0 0 1 82.498 160 4.496 4.496 0 0 1 78 155.505v-10.01zM121 145.495a4.5 4.5 0 0 1 9 0v10.01a4.496 4.496 0 0 1-4.498 4.495 4.5 4.5 0 0 1-4.502-4.495v-10.01zM95.549 162c-2.514 0-4.549-2.016-4.549-4.5 0-2.487 2.035-4.5 4.549-4.5h15.902c2.51 0 4.549 2.013 4.549 4.5 0 2.484-2.04 4.5-4.549 4.5H95.55zM95.549 125c-2.514 0-4.549-2.013-4.549-4.5 0-2.484 2.035-4.5 4.549-4.5h15.902c2.51 0 4.549 2.016 4.549 4.5 0 2.487-2.04 4.5-4.549 4.5H95.55z"/>
    </g>
</svg>
