<svg xmlns="http://www.w3.org/2000/svg" xmlns:xlink="http://www.w3.org/1999/xlink" width="166" height="170" viewBox="0 0 166 170">
    <defs>
        <path id="a" d="M.392.453h34.447v44.453H.392z"/>
        <path id="c" d="M.688.122h103.577v74.665H.688z"/>
        <path id="e" d="M0 .279h90.56v99.349H0z"/>
    </defs>
    <g fill="none" fill-rule="evenodd">
        <path fill="#FFF" d="M113.954 58.42a2.37 2.37 0 0 1-1.234-.346c-1.95-1.188-47.753-29.378-47.753-54.54a2.373 2.373 0 0 1 4.745 0c0 20.395 36.96 45.052 44.242 49.711 7.282-4.659 44.243-29.316 44.243-49.712a2.372 2.372 0 0 1 4.744 0c0 25.163-45.803 53.353-47.752 54.541a2.37 2.37 0 0 1-1.235.346"/>
        <path fill="#FFF" d="M65.966 45.243c-.037 0-.075 0-.113-.002a2.373 2.373 0 0 1-2.259-2.481l1.864-39.708a2.37 2.37 0 0 1 3.395-2.028l27.837 13.35a2.373 2.373 0 0 1-2.051 4.278L70.03 6.85l-1.697 36.134a2.372 2.372 0 0 1-2.367 2.26"/>
        <g transform="translate(130.465 .338)">
            <mask id="b" fill="#fff">
                <use xlink:href="#a"/>
            </mask>
            <path fill="#FFF" d="M32.465 44.906a2.372 2.372 0 0 1-2.368-2.26L28.4 6.511 3.79 18.315a2.373 2.373 0 0 1-2.051-4.279L29.575.686a2.37 2.37 0 0 1 3.396 2.028l1.865 39.708a2.373 2.373 0 0 1-2.371 2.484" mask="url(#b)"/>
        </g>
        <g transform="translate(61.674 12.989)">
            <mask id="d" fill="#fff">
                <use xlink:href="#c"/>
            </mask>
            <path fill="#1D1D1D" d="M5.463 36.25l47.013 33.259 47.014-33.26C98.57 18.837 77.834 4.867 52.476 4.867c-25.358 0-46.094 13.97-47.013 31.384m47.013 38.537c-.48 0-.96-.145-1.37-.435L1.69 39.392a2.371 2.371 0 0 1-1.002-1.937C.688 16.869 23.92.122 52.476.122c28.557 0 51.79 16.747 51.79 37.333 0 .77-.374 1.492-1.003 1.936l-49.418 34.96c-.41.291-.89.436-1.369.436" mask="url(#d)"/>
        </g>
        <path fill="#FFF" d="M118.675 70.21a4.919 4.919 0 0 1-4.918 4.918 4.917 4.917 0 1 1 4.917-4.918"/>
        <g transform="translate(0 69.919)">
            <mask id="f" fill="#fff">
                <use xlink:href="#e"/>
            </mask>
            <path fill="#1D1D1D" d="M6.255 19.42c15.97 1.807 28.841 15.28 28.841 31.025v28.322c0 8.887 7.23 16.116 16.116 16.116h17.5a2.381 2.381 0 0 1-.007-.185V33.334c0-15.61-12.7-28.311-28.31-28.311h-10.62c-10.04 0-18.624 5.319-23.52 14.397m81.933 80.208H51.212c-11.502 0-20.86-9.358-20.86-20.86V50.444c0-14.356-12.701-26.483-27.738-26.486h-.02C.078 23.95.001 21.652 0 21.629c-.01-.495.175-1.266.783-1.81C6.187 7.563 16.96.28 29.775.28h10.62c18.226 0 33.054 14.828 33.054 33.055v61.364c0 .063-.002.125-.006.185h14.745a2.372 2.372 0 0 1 0 4.745" mask="url(#f)"/>
        </g>
        <path fill="#1D1D1D" d="M108.055 169.547H71.667a2.372 2.372 0 0 1-2.372-2.372V97.417c0-13.572 8.69-25.43 21.623-29.508a2.373 2.373 0 0 1 1.426 4.525C81.395 75.886 74.04 85.926 74.04 97.417v67.386h34.016c15.61 0 28.31-12.7 28.31-28.311V68.833a2.372 2.372 0 1 1 4.744 0v67.659c0 18.227-14.828 33.055-33.054 33.055"/>
    </g>
</svg>
